{"title":"Solitary-S04E004-Going.Ape.avi","uid":5404344,"size":395256452,"categoryP":"video","categoryS":"tv_shows","magnet":"?xt=urn:btih:f29003be1b69fe3e085e64d89c694ef5f3618a15&amp;dn=Solitary-S04E004-Going.Ape.avi&amp;tr=udp%3A%2F%2Ftracker.openbittorrent.com%3A80&amp;tr=udp%3A%2F%2Fopen.demonii.com%3A1337&amp;tr=udp%3A%2F%2Ftracker.coppersurfer.tk%3A6969&amp;tr=udp%3A%2F%2Fexodus.desync.com%3A6969","seeders":0,"leechers":1,"uploader":"pixiesmiles","files":-1,"time":1267540648,"description":"I had a major fight with my encoding software, so sorry about quality inconsistencies. Actually, it's more the display aspect ratio that is a little off. After spending all night encoding though, I'm done! -until the next one that is. ;o)\n\nEnjoy!\n\n\n\nFormat                           : AVI\nFormat/Info                      : Audio Video Interleave\nFile size                        : 377 MiB\nDuration                         : 45mn 12s\nOverall bit rate                 : 1 166 Kbps\n\nVideo\nFormat                           : xvid\nCodec ID                         : xvid\nDuration                         : 45mn 12s\nBit rate                         : 1 024 Kbps\nWidth                            : 720 pixels\nHeight                           : 576 pixels\nDisplay aspect ratio             : 5:4\nFrame rate                       : 30.000 fps\nBits/(Pixel*Frame)               : 0.082\nStream size                      : 331 MiB (88%)\n\nAudio\nID                               : 1\nFormat                           : MPEG Audio\nFormat version                   : Version 1\nFormat profile                   : Layer 3\nMode                             : Joint stereo\nFormat_Settings_ModeExtension    : MS Stereo\nCodec ID                         : 55\nCodec ID/Hint                    : MP3\nDuration                         : 45mn 12s\nBit rate mode                    : Constant\nBit rate                         : 128 Kbps\nChannel(s)                       : 2 channels\nSampling rate                    : 48.0 KHz\nStream size                      : 41.4 MiB (11%)\nAlignment                        : Aligned on interleaves\nInterleave, duration             : 24 ms (0.72 video frame)\nWriting library                  : LAME3.97 (beta)\n\n","torrent":{"xt":"urn:btih:f29003be1b69fe3e085e64d89c694ef5f3618a15","amp;dn":"Solitary-S04E004-Going.Ape.avi","amp;tr":["udp%3A%2F%2Ftracker.openbittorrent.com%3A80","udp%3A%2F%2Fopen.demonii.com%3A1337","udp%3A%2F%2Ftracker.coppersurfer.tk%3A6969","udp%3A%2F%2Fexodus.desync.com%3A6969"],"infoHash":"f29003be1b69fe3e085e64d89c694ef5f3618a15","infoHashBuffer":{"type":"Buffer","data":[242,144,3,190,27,105,254,62,8,94,100,216,156,105,78,245,243,97,138,21]},"announce":[],"urlList":[]}}